<svg width="132" height="121" viewBox="0 0 132 121" fill="none" xmlns="http://www.w3.org/2000/svg">
<path fill-rule="evenodd" clip-rule="evenodd" d="M124.083 75.7327C124.622 76.0151 125.162 76.1388 125.74 76.1388H125.759C126.338 76.1388 126.878 76.0151 127.417 75.7327C127.944 75.4789 128.375 75.0844 128.652 74.6015C128.943 74.1395 129.096 73.6152 129.094 73.0817C129.094 72.5337 128.959 72.0215 128.652 71.5262C128.362 71.0315 127.938 70.6605 127.399 70.395C126.858 70.1301 126.32 69.9895 125.759 69.9895H125.74C125.167 70.0054 124.606 70.1442 124.101 70.395C123.563 70.6605 123.157 71.0315 122.848 71.5262C122.552 71.9993 122.4 72.5364 122.406 73.0817C122.406 73.594 122.541 74.1068 122.848 74.6015C123.125 75.0847 123.556 75.4792 124.083 75.7327V75.7327ZM123.332 71.7917C123.575 71.3912 123.936 71.0606 124.373 70.8369C124.815 70.6248 125.278 70.5017 125.741 70.5017H125.759C126.222 70.5017 126.685 70.6248 127.129 70.8369C127.566 71.0609 127.926 71.3914 128.17 71.7917C128.421 72.1979 128.536 72.6222 128.536 73.0817C128.539 73.5279 128.412 73.9666 128.17 74.3535C127.933 74.748 127.578 75.0727 127.148 75.2901C126.726 75.5121 126.247 75.6279 125.76 75.6259H125.742C125.255 75.6276 124.776 75.5118 124.353 75.2901C123.924 75.0723 123.57 74.7476 123.333 74.3535C123.082 73.9474 122.947 73.5237 122.947 73.0817C122.945 72.6222 123.08 72.1985 123.332 71.7917V71.7917Z" fill="white"/>
<path fill-rule="evenodd" clip-rule="evenodd" d="M124.853 73.3642H125.2C125.413 73.3642 125.566 73.4 125.663 73.4879C125.702 73.5055 125.722 73.5237 125.74 73.5406C125.894 73.6643 126.068 73.9122 126.281 74.2481L126.609 74.7779H127.303L126.879 74.1244C126.666 73.8237 126.474 73.594 126.339 73.4703C126.249 73.3938 126.144 73.3339 126.03 73.2939C126.339 73.2763 126.589 73.1702 126.782 72.9932C126.975 72.8162 127.072 72.6047 127.072 72.3567C127.072 72.1803 127.013 72.0209 126.898 71.8796C126.79 71.7263 126.626 71.6134 126.435 71.5614C126.281 71.5086 126.05 71.4728 125.741 71.4728C125.683 71.4728 125.606 71.4553 125.529 71.4553H124.276V74.7773H124.854V73.3642H124.853V73.3642ZM124.853 71.9148H125.74C125.914 71.933 126.029 71.9506 126.107 71.9681C126.211 71.9954 126.301 72.0586 126.357 72.1445C126.414 72.2148 126.434 72.304 126.434 72.4101C126.436 72.4771 126.422 72.5437 126.391 72.6049C126.361 72.666 126.316 72.72 126.26 72.7628C126.163 72.8514 125.989 72.8865 125.74 72.9047H124.853V71.9148H124.853V71.9148ZM38.2791 72.2864H43.4843L38.2791 64.3342L33.8834 57.6375L15.204 67.9217L18.0569 72.2864H38.2791V72.2864ZM86.7037 72.2864H112.131L96.3032 48.1129L78.8003 21.4297L71.59 25.4058L60.1394 31.7139L71.59 49.1907L86.7037 72.2864V72.2864ZM77.8176 80.2561C76.0241 79.1965 73.9225 78.5776 71.6476 78.5776H71.59C65.3063 78.6127 60.1976 83.3132 60.1976 89.074C60.1976 94.8353 65.3063 99.5352 71.59 99.571H71.6476C73.9225 99.571 76.0241 98.9526 77.8176 97.8924V98.9878H83.0797V72.287H77.8176V80.2561ZM77.8176 90.17C77.2588 92.8209 74.6943 94.8523 71.6476 94.8523H71.59C68.1393 94.8171 65.3446 92.2371 65.3446 89.074C65.3446 85.9114 68.1393 83.3314 71.59 83.3132H71.6476C74.6943 83.3132 77.2582 85.3282 77.8176 87.9785V90.17ZM102.531 80.2561C100.696 79.1588 98.5527 78.5754 96.3621 78.5776H96.3032C90.0195 78.6127 84.9115 83.3132 84.9115 89.074C84.9115 94.8353 90.0195 99.5352 96.3032 99.571H96.3621C98.637 99.571 100.757 98.9526 102.531 97.8924V98.9878H107.794V79.1074H102.531V80.2561ZM102.531 90.17C101.972 92.8209 99.4074 94.8523 96.3621 94.8523H96.3032C92.8539 94.8171 90.0585 92.2371 90.0585 89.074C90.0585 85.9114 92.8539 83.3314 96.3032 83.3132H96.3621C99.4074 83.3132 101.971 85.3282 102.531 87.9785V90.17ZM126.512 87.7664C126.32 87.6772 126.049 87.5894 125.74 87.4833C124.564 87.1123 122.656 86.6528 119.995 86.123C117.663 85.6453 116.487 85.0276 116.487 84.2498C116.487 83.7018 116.699 83.2599 117.103 82.9422C117.644 82.5179 118.607 82.3057 119.995 82.3057C121.403 82.3057 122.424 82.5888 123.022 83.1362C123.389 83.472 123.658 84.0722 123.832 84.9209H129.422C129.422 82.4118 128.304 80.6096 126.107 79.5142C125.991 79.4449 125.868 79.3858 125.74 79.3378C124.217 78.6837 122.193 78.3478 119.668 78.3478C116.602 78.3478 114.29 79.0904 112.748 80.592C111.515 81.7935 110.917 83.2599 110.917 84.9918C110.917 87.1487 112.073 88.703 114.425 89.7105C115.312 90.099 117.471 90.6471 120.903 91.3187C123.197 91.7782 124.352 92.4323 124.352 93.2628C124.352 93.7581 124.122 94.1818 123.621 94.5704C122.984 95.0651 122.02 95.313 120.729 95.313C119.013 95.313 117.799 95.0481 117.086 94.5359C116.371 94.0412 116.005 93.3168 116.005 92.3978H110.145C110.145 94.8366 111.263 96.6564 113.519 97.8572C115.312 98.7938 117.664 99.2715 120.575 99.2715C122.522 99.2715 124.256 98.9708 125.741 98.3883C126.05 98.2646 126.32 98.1404 126.609 97.9991C128.903 96.8334 130.06 94.9778 130.06 92.4336C130.059 90.3464 128.882 88.7908 126.512 87.7664V87.7664ZM19.5607 80.2561C17.718 79.1609 15.569 78.578 13.3728 78.5776H13.3146C7.05004 78.6127 1.94141 83.3132 1.94141 89.074C1.94141 94.8353 7.05004 99.5352 13.3146 99.571H13.3728C15.6478 99.571 17.7679 98.9526 19.5607 97.8924V98.9878H24.8234V79.1074H19.5607V80.2561V80.2561ZM19.5607 90.17C19.0019 92.8209 16.4373 94.8523 13.3728 94.8523H13.3146C9.88376 94.8171 7.08839 92.2371 7.08839 89.074C7.08839 85.9114 9.88376 83.3314 13.3146 83.3132H13.3728C16.438 83.3132 19.0019 85.3282 19.5607 87.9785V90.17ZM52.4094 77.0051H58.135V72.3925H52.4094V77.0051ZM52.4094 98.9872H58.135V78.5776H52.4094V98.9872ZM44.5252 80.2561C42.6823 79.1608 40.533 78.5779 38.3367 78.5776H38.2791C31.9947 78.6127 26.8861 83.3132 26.8861 89.074C26.8861 94.8353 31.994 99.5352 38.2791 99.571H38.3367C40.533 99.5709 42.6824 98.9879 44.5252 97.8924V98.9878H49.788V72.287H44.5252V80.2561ZM44.5252 90.17C43.9664 92.8209 41.4018 94.8523 38.3367 94.8523H38.2791C34.8284 94.8171 32.033 92.2371 32.033 89.074C32.033 85.9114 34.8284 83.3314 38.2791 83.3132H38.3367C41.4018 83.3132 43.9657 85.3282 44.5252 87.9785V90.17ZM77.7971 72.2864L71.59 62.78L56.3422 39.5248L38.2791 49.4914L37.6621 49.8266L38.2791 50.7632L52.3895 72.2864H77.7971Z" fill="white"/>
</svg>
